<svg width="1200" height="720" viewBox="0 0 1200 720" fill="none" xmlns="http://www.w3.org/2000/svg">
  <rect width="1200" height="720" rx="32" fill="#181818"/>
  <rect x="0" y="0" width="1200" height="72" fill="#111111"/>
  <rect x="0" y="72" width="900" height="648" fill="#A8D0DB"/>
  <rect x="900" y="72" width="300" height="648" fill="#1A1A1A"/>
  <rect x="0" y="72" width="900" height="648" fill="url(#grid)" opacity="0.45"/>
  <path d="M70 514C150 488 192 423 245 402C330 369 377 300 449 284C512 271 596 190 660 191C717 193 762 138 835 115" stroke="#2563EB" stroke-width="9" stroke-linecap="round"/>
  <path d="M198 587C264 546 337 569 381 531C450 474 489 450 548 464" stroke="#22C55E" stroke-width="9" stroke-linecap="round"/>
  <path d="M556 463C636 471 658 526 721 530C791 535 827 615 877 601" stroke="#F59E0B" stroke-width="9" stroke-linecap="round"/>
  <circle cx="306" cy="383" r="16" fill="#F59E0B" stroke="white" stroke-width="6"/>
  <circle cx="535" cy="463" r="16" fill="#22C55E" stroke="white" stroke-width="6"/>
  <circle cx="755" cy="600" r="16" fill="#9CA3AF" stroke="white" stroke-width="6"/>
  <text x="944" y="112" fill="#F5F5F5" font-size="22" font-family="Arial" font-weight="700">PUNTOS</text>
  <rect x="924" y="146" width="232" height="86" rx="16" fill="#222222"/>
  <rect x="924" y="146" width="4" height="86" rx="2" fill="#F59E0B"/>
  <text x="948" y="180" fill="#FFFFFF" font-size="20" font-family="Arial" font-weight="700">Puerto</text>
  <text x="948" y="208" fill="#8A8A8A" font-size="15" font-family="Arial">km 53.1</text>
  <rect x="924" y="246" width="232" height="86" rx="16" fill="#222222"/>
  <rect x="924" y="246" width="4" height="86" rx="2" fill="#22C55E"/>
  <text x="948" y="280" fill="#FFFFFF" font-size="20" font-family="Arial" font-weight="700">Avituallamiento</text>
  <text x="948" y="308" fill="#8A8A8A" font-size="15" font-family="Arial">km 89.6</text>
  <rect x="924" y="346" width="232" height="86" rx="16" fill="#222222"/>
  <rect x="924" y="346" width="4" height="86" rx="2" fill="#9CA3AF"/>
  <text x="948" y="380" fill="#FFFFFF" font-size="20" font-family="Arial" font-weight="700">Nota</text>
  <text x="948" y="408" fill="#8A8A8A" font-size="15" font-family="Arial">km 147.4</text>
  <rect x="924" y="636" width="108" height="40" rx="10" fill="#212121" stroke="#3A3A3A"/>
  <rect x="1048" y="636" width="108" height="40" rx="10" fill="#212121" stroke="#3A3A3A"/>
  <text x="957" y="662" fill="#9A9A9A" font-size="14" font-family="Arial">Puerto</text>
  <text x="1086" y="662" fill="#9A9A9A" font-size="14" font-family="Arial">Nota</text>
  <defs>
    <pattern id="grid" width="144" height="144" patternUnits="userSpaceOnUse">
      <path d="M144 0H0V144" stroke="#31525C" stroke-width="2"/>
    </pattern>
  </defs>
</svg>
